M48
;GenerationSoftware,Autodesk,EAGLE,9.6.2*%
;CreationDate,2020-12-30T00:42:27Z*%
FMAT,2
ICI,OFF
METRIC,TZ,000.000
T5C0.813
T4C1.000
T3C1.016
T2C1.194
%
G90
M71
T2
X3850Y6350
X8850Y6350
X35540Y3890
X35540Y8890
X35540Y13890
T3
X2819Y19609
X7341Y19609
X2819Y26111
X7341Y26111
X21590Y6350
X21590Y8890
X21590Y11430
X21666Y35204
X21666Y39726
X15164Y35204
X15164Y39726
T4
X13970Y29210
X13970Y26670
X13970Y24130
X16510Y24130
X16510Y26670
X16510Y29210
X13970Y21590
X16510Y21590
T5
X19685Y15875
X10160Y39370
X2540Y15240
X26035Y34925
X26035Y40005
X15240Y2540
X15240Y7620
X15240Y11430
X15240Y16510
X10160Y29210
X10160Y15240
X6350Y29210
X6350Y39370
X2540Y39370
X2540Y29210
X7620Y15240
X29845Y15875
X10160Y25400
M30