G04 EAGLE Gerber RS-274X export*
G75*
%MOMM*%
%FSLAX34Y34*%
%LPD*%
%INTop Copper*%
%IPPOS*%
%AMOC8*
5,1,8,0,0,1.08239X$1,22.5*%
G01*
%ADD10P,1.429621X8X202.500000*%
%ADD11P,1.429621X8X112.500000*%
%ADD12C,1.524000*%
%ADD13P,1.429621X8X292.500000*%
%ADD14P,1.429621X8X22.500000*%
%ADD15R,1.508000X1.508000*%
%ADD16C,1.508000*%
%ADD17C,1.790700*%
%ADD18C,0.152400*%


D10*
X76200Y152400D03*
X25400Y152400D03*
D11*
X260350Y349250D03*
X260350Y400050D03*
X152400Y25400D03*
X152400Y76200D03*
X152400Y114300D03*
X152400Y165100D03*
D12*
X159258Y397256D02*
X144018Y397256D01*
X144018Y352044D02*
X159258Y352044D01*
X209042Y397256D02*
X224282Y397256D01*
X224282Y352044D02*
X209042Y352044D01*
X208280Y114300D02*
X223520Y114300D01*
X223520Y88900D02*
X208280Y88900D01*
X208280Y63500D02*
X223520Y63500D01*
D11*
X101600Y292100D03*
X101600Y393700D03*
X63500Y292100D03*
X63500Y393700D03*
D13*
X25400Y393700D03*
X25400Y292100D03*
D14*
X196850Y158750D03*
X298450Y158750D03*
D13*
X101600Y254000D03*
X101600Y152400D03*
D12*
X28194Y188468D02*
X28194Y203708D01*
X73406Y203708D02*
X73406Y188468D01*
X28194Y253492D02*
X28194Y268732D01*
X73406Y268732D02*
X73406Y253492D01*
D15*
X165100Y292100D03*
D16*
X165100Y266700D03*
X165100Y241300D03*
X139700Y241300D03*
X139700Y266700D03*
X139700Y292100D03*
X139700Y215900D03*
D15*
X165100Y215900D03*
D17*
X346447Y138900D02*
X364354Y138900D01*
X364354Y88900D02*
X346447Y88900D01*
X346447Y38900D02*
X364354Y38900D01*
X88500Y54547D02*
X88500Y72454D01*
X38500Y72454D02*
X38500Y54547D01*
D18*
X127000Y88900D02*
X215900Y88900D01*
X127000Y88900D02*
X127000Y139700D01*
X152400Y165100D01*
X139700Y177800D01*
X139700Y215900D01*
X114300Y152400D02*
X101600Y152400D01*
X114300Y152400D02*
X127000Y139700D01*
X101600Y393700D02*
X63500Y393700D01*
X101600Y393700D02*
X101600Y323850D01*
X88900Y311150D01*
X88900Y247650D01*
X95250Y241300D01*
X120650Y241300D01*
X133350Y254000D01*
X146050Y254000D01*
X152400Y247650D01*
X152400Y228600D01*
X139700Y215900D01*
X152400Y114300D02*
X215900Y114300D01*
X266700Y114300D01*
X304800Y114300D01*
X330200Y139700D01*
X254000Y76200D02*
X152400Y76200D01*
X254000Y76200D02*
X266700Y88900D01*
X266700Y114300D01*
X152400Y76200D02*
X114300Y76200D01*
X101600Y88900D01*
X63500Y88900D01*
X38100Y63500D01*
X177800Y152400D02*
X215900Y114300D01*
X177800Y152400D02*
X177800Y158750D01*
X31750Y393700D02*
X25400Y393700D01*
X165100Y368300D02*
X177800Y355600D01*
X177800Y323850D01*
X165100Y311150D01*
X165100Y292100D01*
X330200Y139700D02*
X355600Y139700D01*
X196850Y158750D02*
X177800Y158750D01*
X355600Y139700D02*
X355600Y133350D01*
X38100Y63500D02*
X12700Y88900D01*
X12700Y381000D01*
X25400Y393700D01*
X44450Y393700D01*
X57150Y406400D01*
X114300Y406400D01*
X152400Y368300D01*
X165100Y368300D01*
X76200Y279400D02*
X63500Y292100D01*
X76200Y196850D02*
X76200Y152400D01*
X76200Y260350D02*
X76200Y279400D01*
X76200Y260350D02*
X76200Y234950D01*
X133350Y234950D01*
X139700Y241300D01*
X76200Y260350D02*
X69850Y260350D01*
X69850Y203200D01*
X76200Y196850D01*
X25400Y196850D02*
X25400Y203200D01*
X25400Y196850D02*
X25400Y152400D01*
X25400Y260350D02*
X25400Y292100D01*
X25400Y260350D02*
X31750Y260350D01*
X31750Y196850D01*
X25400Y196850D01*
X101600Y292100D02*
X152400Y342900D01*
X152400Y349250D01*
X215900Y349250D02*
X260350Y349250D01*
X215900Y349250D02*
X215900Y355600D01*
X152400Y342900D02*
X152400Y279400D01*
X184150Y279400D01*
X215900Y311150D01*
X215900Y349250D01*
X152400Y279400D02*
X152400Y254000D01*
X165100Y241300D01*
X215900Y400050D02*
X260350Y400050D01*
X215900Y400050D02*
X152400Y400050D01*
X260350Y400050D02*
X279400Y381000D01*
X279400Y177800D01*
X298450Y158750D01*
X215900Y393700D02*
X215900Y400050D01*
X114300Y266700D02*
X101600Y254000D01*
X114300Y266700D02*
X139700Y266700D01*
X165100Y266700D02*
X247650Y184150D01*
X247650Y158750D01*
X266700Y139700D01*
X311150Y139700D01*
X336550Y165100D01*
X368300Y165100D01*
X387350Y146050D01*
X387350Y114300D01*
X361950Y88900D01*
X355600Y88900D01*
X190500Y25400D02*
X152400Y25400D01*
X190500Y25400D02*
X215900Y50800D01*
X215900Y63500D01*
X304800Y63500D01*
X330200Y38100D01*
X114300Y63500D02*
X88900Y63500D01*
X114300Y63500D02*
X152400Y25400D01*
X330200Y38100D02*
X355600Y38100D01*
X355600Y44450D01*
M02*
