G04 EAGLE Gerber RS-274X export*
G75*
%MOMM*%
%FSLAX34Y34*%
%LPD*%
%INSoldermask Top*%
%IPPOS*%
%AMOC8*
5,1,8,0,0,1.08239X$1,22.5*%
G01*
%ADD10P,1.649562X8X202.500000*%
%ADD11P,1.649562X8X112.500000*%
%ADD12C,1.727200*%
%ADD13P,1.649562X8X292.500000*%
%ADD14P,1.649562X8X22.500000*%
%ADD15R,1.711200X1.711200*%
%ADD16C,1.711200*%
%ADD17C,1.993900*%


D10*
X76200Y152400D03*
X25400Y152400D03*
D11*
X260350Y349250D03*
X260350Y400050D03*
X152400Y25400D03*
X152400Y76200D03*
X152400Y114300D03*
X152400Y165100D03*
D12*
X159258Y397256D02*
X144018Y397256D01*
X144018Y352044D02*
X159258Y352044D01*
X209042Y397256D02*
X224282Y397256D01*
X224282Y352044D02*
X209042Y352044D01*
X208280Y114300D02*
X223520Y114300D01*
X223520Y88900D02*
X208280Y88900D01*
X208280Y63500D02*
X223520Y63500D01*
D11*
X101600Y292100D03*
X101600Y393700D03*
X63500Y292100D03*
X63500Y393700D03*
D13*
X25400Y393700D03*
X25400Y292100D03*
D14*
X196850Y158750D03*
X298450Y158750D03*
D13*
X101600Y254000D03*
X101600Y152400D03*
D12*
X28194Y188468D02*
X28194Y203708D01*
X73406Y203708D02*
X73406Y188468D01*
X28194Y253492D02*
X28194Y268732D01*
X73406Y268732D02*
X73406Y253492D01*
D15*
X165100Y292100D03*
D16*
X165100Y266700D03*
X165100Y241300D03*
X139700Y241300D03*
X139700Y266700D03*
X139700Y292100D03*
X139700Y215900D03*
D15*
X165100Y215900D03*
D17*
X346447Y138900D02*
X364354Y138900D01*
X364354Y88900D02*
X346447Y88900D01*
X346447Y38900D02*
X364354Y38900D01*
X88500Y54547D02*
X88500Y72454D01*
X38500Y72454D02*
X38500Y54547D01*
M02*
